<svg viewBox="0 0 24 24" width="24" height="24"><g fill="none" stroke-miterlimit="10"  mix-blend-mode="normal"><path d="M0 24V0h24v24z"/><path d="M16.219 7.928a.562.562 0 0 1-.562-.563V5.719a3.656 3.656 0 0 0-7.312 0v1.646a.562.562 0 1 1-1.125 0V5.719a4.781 4.781 0 1 1 9.561 0v1.646a.562.562 0 0 1-.563.562z" fill="#acb3ba"/><path d="M21.802 20.865 21 8.73a2.07 2.07 0 0 0-2.059-1.928H5.066A2.07 2.07 0 0 0 3 8.73l-.802 12.135a2.059 2.059 0 0 0 2.055 2.197h15.495a2.059 2.059 0 0 0 2.055-2.198z" fill="#fff"/><path d="M12 14.812a4.784 4.784 0 0 1-4.781-4.781.562.562 0 1 1 1.125 0 3.656 3.656 0 0 0 7.312 0 .562.562 0 1 1 1.125 0A4.785 4.785 0 0 1 12 14.812z" fill="#e6e6e6"/><path d="M21.802 20.865 21 8.73a2.07 2.07 0 0 0-2.059-1.928h-2.16V5.718c0-2.64-2.14-4.78-4.781-4.78s-4.781 2.14-4.781 4.781v1.084h-2.16A2.07 2.07 0 0 0 3 8.731l-.802 12.135a2.059 2.059 0 0 0 2.055 2.197h15.495a2.059 2.059 0 0 0 2.055-2.197zM8.344 5.719a3.656 3.656 0 0 1 7.312 0v1.084H8.344zM20.43 21.642a.93.93 0 0 1-.682.296H4.252a.938.938 0 0 1-.934-1.001l.806-12.131a.941.941 0 0 1 .938-.878h13.875a.941.941 0 0 1 .937.878l.803 12.131a.922.922 0 0 1-.248.705z" fill="#000"/><path d="M16.219 9.469a.562.562 0 0 0-.562.562 3.656 3.656 0 0 1-7.312 0 .562.562 0 1 0-1.125 0 4.781 4.781 0 1 0 9.562 0 .562.562 0 0 0-.563-.563z" fill="#000"/></g></svg>