<svg width="118" height="42.143" viewBox="0 0 118 42.143"><path fill="#262626" d="M9.097 6.899c-2.277.953-4.78 3.646-5.571 7.026-1.001 4.283 3.165 6.094 3.507 5.5.402-.698-.747-.934-.983-3.156-.306-2.87 1.029-6.077 2.708-7.484.312-.261.297.103.297.775 0 1.204-.066 12.008-.066 14.263 0 3.051-.126 4.015-.352 4.967-.229.965-.598 1.617-.319 1.868.312.281 1.645-.387 2.416-1.464.925-1.291 1.249-2.842 1.307-4.527.07-2.03.067-5.252.07-7.09.003-1.685.028-6.621-.029-9.587-.014-.728-2.033-1.491-2.985-1.092m80.862 14.28c-.073 1.586-.425 2.826-.86 3.701-.844 1.693-2.594 2.219-3.338-.215-.405-1.327-.424-3.542-.133-5.394.296-1.886 1.124-3.31 2.495-3.182 1.352.127 1.985 1.869 1.836 5.09zm-22.79 9.841c-.018 2.636-.433 4.946-1.323 5.618-1.262.952-2.957.238-2.606-1.685.311-1.702 1.78-3.44 3.932-5.564 0 0 .004.484-.004 1.631zm-.345-9.857c-.077 1.445-.452 2.896-.86 3.716-.843 1.693-2.607 2.222-3.337-.215-.5-1.665-.38-3.821-.133-5.179.321-1.762 1.098-3.397 2.495-3.397 1.358 0 2.027 1.489 1.836 5.074zm-13.202-.022c-.083 1.53-.381 2.809-.86 3.738-.867 1.681-2.581 2.215-3.337-.215-.545-1.752-.36-4.141-.133-5.431.336-1.915 1.179-3.273 2.495-3.144 1.351.132 2.008 1.869 1.836 5.052zm60.504 1.787c-.33 0-.481.341-.606.914-.433 1.993-.887 2.443-1.474 2.443-.655 0-1.244-.987-1.395-2.962-.119-1.553-.1-4.413.052-7.257.031-.584-.13-1.163-1.698-1.732-.675-.245-1.655-.606-2.143.573-1.379 3.329-1.919 5.973-2.046 7.046-.007.056-.075.067-.087-.063-.081-.86-.262-2.423-.284-5.706-.004-.641-.14-1.186-.847-1.632-.459-.29-1.852-.802-2.354-.192-.435.498-.938 1.84-1.461 3.43a288.877 288.877 0 0 1-.721 2.167s.006-3.487.011-4.81c.002-.499-.34-.665-.443-.695-.465-.135-1.38-.36-1.769-.36-.479 0-.597.268-.597.658 0 .051-.076 4.592-.076 7.766l.001.448c-.265 1.459-1.125 3.44-2.06 3.44-.936 0-1.378-.828-1.378-4.613 0-2.208.066-3.168.099-4.765.019-.92.055-1.626.053-1.787-.007-.492-.857-.739-1.252-.831a3.73 3.73 0 0 0-1.012-.113c-.382.022-.652.272-.652.616l.002.536c-.492-.772-1.282-1.31-1.808-1.466-1.417-.421-2.895-.048-4.011 1.513-.886 1.24-1.42 2.644-1.631 4.662-.154 1.475-.104 2.971.17 4.236-.33 1.427-.943 2.012-1.614 2.012-.974 0-1.681-1.59-1.599-4.341.054-1.809.416-3.079.812-4.915.169-.783.032-1.193-.312-1.586-.315-.36-.987-.544-1.953-.318a34.16 34.16 0 0 1-2.572.468s.054-.217.099-.599c.234-2.003-1.943-1.841-2.637-1.201-.415.382-.697.833-.804 1.643-.17 1.286.879 1.892.879 1.892-.344 1.575-1.187 3.632-2.058 5.119-.466.797-.823 1.387-1.283 2.015a195.2 195.2 0 0 1-.004-.7c-.011-3.311.034-5.916.053-6.856.019-.92.056-1.607.054-1.768-.005-.36-.215-.495-.652-.667a4.64 4.64 0 0 0-1.316-.294c-.598-.047-.958.27-.949.645.002.071.002.505.002.505-.492-.772-1.282-1.31-1.808-1.466-1.417-.421-2.895-.048-4.011 1.513-.886 1.24-1.466 2.98-1.631 4.647-.153 1.553-.125 2.873.084 3.985-.225 1.114-.873 2.278-1.605 2.278-.936 0-1.469-.828-1.469-4.613 0-2.208.066-3.168.099-4.765.019-.92.055-1.626.053-1.786-.007-.492-.857-.739-1.252-.831-.414-.096-.771-.131-1.046-.111-.362.027-.616.351-.616.593v.557c-.492-.772-1.282-1.31-1.808-1.466-1.417-.421-2.887-.042-4.011 1.513-.733 1.014-1.326 2.137-1.631 4.624a15.63 15.63 0 0 0-.122 2.021c-.292 1.787-1.582 3.846-2.638 3.846-.618 0-1.206-1.198-1.206-3.751 0-3.401.21-8.243.246-8.709 0 0 1.334-.023 1.592-.026.665-.007 1.268.008 2.154-.037.444-.023.872-1.617.414-1.815-.208-.089-1.677-.168-2.259-.18-.49-.011-1.853-.112-1.853-.112s.122-3.214.151-3.553c.024-.283-.342-.429-.552-.517-.51-.216-.967-.319-1.509-.431-.748-.154-1.087-.003-1.153.628-.1.958-.152 3.764-.152 3.764-.549 0-2.424-.107-2.973-.107-.51 0-1.061 2.194-.355 2.221.811.031 2.225.058 3.163.087 0 0-.042 4.922-.042 6.441l.002.468c-.516 2.689-2.333 4.142-2.333 4.142.39-1.779-.407-3.115-1.843-4.246a132.417 132.417 0 0 0-2.742-2.07s.677-.667 1.277-2.009c.425-.951.444-2.038-.6-2.278-1.725-.397-3.147.87-3.571 2.222-.329 1.048-.153 1.825.49 2.632.047.059.098.119.151.18-.389.75-.924 1.761-1.377 2.544-1.257 2.175-2.207 3.896-2.925 3.896-.574 0-.566-1.747-.566-3.382 0-1.41.104-3.53.187-5.724.028-.726-.335-1.139-.944-1.514-.37-.228-1.159-.675-1.615-.675-.684 0-2.657.093-4.522 5.486-.235.68-.697 1.918-.697 1.918l.04-6.485c0-.152-.081-.299-.266-.4-.314-.171-1.153-.519-1.9-.519-.355 0-.533.165-.533.495l-.065 10.147c0 .771.02 1.67.096 2.064.076.394.199.714.351.905.152.19.328.335.618.395.27.056 1.749.246 1.826-.32.092-.677.096-1.41.872-4.142 1.209-4.254 2.785-6.329 3.526-7.066.13-.129.277-.137.27.074-.032.932-.143 3.263-.218 5.243-.201 5.298.763 6.28 2.14 6.28 1.054 0 2.539-1.047 4.131-3.697a930.934 930.934 0 0 0 2.649-4.438c.483.447 1.024.928 1.565 1.441 1.258 1.193 1.671 2.328 1.397 3.404-.21.823-.999 1.67-2.403.846-.409-.24-.584-.426-.996-.697-.221-.146-.559-.189-.761-.037-.526.396-.827.901-.998 1.525-.167.608.441.929 1.072 1.21.543.242 1.71.461 2.455.486 2.9.097 5.224-1.401 6.841-5.263.289 3.336 1.522 5.223 3.662 5.223 1.431 0 2.866-1.85 3.494-3.67.18.742.447 1.387.791 1.933 1.65 2.614 4.85 2.051 6.457-.168.497-.686.573-.932.573-.932.234 2.096 1.922 2.828 2.888 2.828 1.082 0 2.2-.511 2.983-2.275a5.39 5.39 0 0 0 .301.547c1.65 2.614 4.85 2.051 6.457-.168a10.24 10.24 0 0 0 .199-.283l.047 1.377-1.48 1.357c-2.477 2.273-4.361 3.998-4.5 6.006-.178 2.561 1.899 3.512 3.47 3.637 1.668.132 3.097-.789 3.975-2.079.773-1.135 1.278-3.579 1.241-5.992-.015-.966-.039-2.195-.058-3.513a28.074 28.074 0 0 0 2.755-3.785c.984-1.63 2.04-3.82 2.58-5.524 0 0 .917.008 1.895-.056.313-.02.403.044.345.273-.07.277-1.236 4.775-.172 7.771.729 2.051 2.371 2.711 3.344 2.711 1.14 0 2.23-.861 2.814-2.139a4.504 4.504 0 0 0 .224.408c1.65 2.614 4.839 2.048 6.457-.168.365-.5.573-.932.573-.932.347 2.169 2.034 2.839 3 2.839 1.006 0 1.961-.413 2.736-2.246.032.807.083 1.468.164 1.676.049.127.335.287.543.364.921.341 1.859.18 2.207.11.241-.049.428-.242.454-.74.067-1.309.026-3.508.423-5.143.666-2.743 1.287-3.807 1.582-4.334.165-.295.351-.344.358-.031.014.632.045 2.488.303 4.982.19 1.834.443 2.918.637 3.261.555.981 1.241 1.027 1.8 1.027.355 0 1.098-.098 1.032-.722-.032-.304.024-2.185.681-4.887.429-1.765 1.144-3.359 1.402-3.942.095-.215.139-.046.138-.013-.054 1.215-.176 5.191.319 7.365.671 2.945 2.613 3.275 3.289 3.275 1.444 0 2.626-1.099 3.024-3.99.096-.696-.046-1.233-.471-1.233"/></svg>