<svg viewBox="0 0 24 24" width="24" height="24"><g fill="none" stroke-miterlimit="10" mix-blend-mode="normal"><path d="M0 24V0h24v24z"/><path d="M21.75 8.25v9a3.686 3.686 0 0 1-.69 2.16.542.542 0 0 1-.06.09 3.758 3.758 0 0 1-3 1.5H6a3.75 3.75 0 0 1-3.75-3.75v-9A.75.75 0 0 1 3 7.5h18a.75.75 0 0 1 .75.75z" fill="#fff"/><path d="M21.75 8.25v9a3.686 3.686 0 0 1-.69 2.16c-.266.06-.537.091-.81.09h-12a3.75 3.75 0 0 1-3.75-3.75V7.5H21a.75.75 0 0 1 .75.75z" fill="#fff"/><path d="M15.221 14.25c.003.428-.227.823-.6 1.032l-.107.059-3.018 1.747a1.184 1.184 0 0 1-1.193 0 1.176 1.176 0 0 1-.596-1.031v-3.608c0-.17.035-.338.101-.495a1.199 1.199 0 0 1 1.688-.543l3.13 1.805c.371.21.599.605.596 1.032z" fill="#000"/><path d="M13.8 15.249a.961.961 0 0 1-.089.412l-2.513 1.455a.985.985 0 0 1-.993 0 .972.972 0 0 1-.496-.859v-3.005c0-.142.029-.282.085-.412a.982.982 0 0 1 .908.044l2.603 1.504a.978.978 0 0 1 .496.859z" fill="#000"/><path d="M21 6.75V9H3V6.75a3.636 3.636 0 0 1 3.15-3.728c.103-.015.207-.022.311-.022h11.078A3.615 3.615 0 0 1 21 6.75z" fill="#fff"/><path d="M20.25 6.75V9H4.5V6.75c0-1.958 1.26-3.563 2.866-3.728C7.46 3.007 7.555 3 7.65 3h9.45c1.739 0 3.15 1.68 3.15 3.75z" fill="#fff"/><path d="M10.5 17.895a1.506 1.506 0 0 1-1.5-1.5v-4.537a1.5 1.5 0 0 1 2.25-1.299l3.929 2.266a1.5 1.5 0 0 1 0 2.598l-3.929 2.269a1.486 1.486 0 0 1-.75.203zm0-6.04v4.537l3.929-2.269zm3.929 2.269zM16.5 9a.752.752 0 0 1-.625-.334l-3-4.5a.75.75 0 1 1 1.248-.832l3 4.5a.752.752 0 0 1-.623 1.167zm-6 0a.752.752 0 0 1-.625-.334l-3-4.5a.75.75 0 1 1 1.248-.832l3 4.5a.752.752 0 0 1-.623 1.167z" fill="#000"/><path d="M18 21H6a3.754 3.754 0 0 1-3.75-3.75V10.5a.75.75 0 0 1 1.5 0v6.75A2.25 2.25 0 0 0 6 19.5h12a2.25 2.25 0 0 0 2.25-2.25v-9a.75.75 0 0 1 1.5 0v9A3.754 3.754 0 0 1 18 21z" fill="#000"/><path d="M21 9H3a.75.75 0 0 1-.75-.75v-1.5A3.754 3.754 0 0 1 6 3h12a3.754 3.754 0 0 1 3.75 3.75v1.5A.75.75 0 0 1 21 9zM3.75 7.5h16.5v-.75A2.25 2.25 0 0 0 18 4.5H6a2.25 2.25 0 0 0-2.25 2.25z" fill="#000"/></g></svg>